<svg width="690" height="407" viewBox="0 0 690 407" fill="none" xmlns="http://www.w3.org/2000/svg">
<path d="M294.951 173.854L393.927 231.986L294.951 290.094V173.854Z" fill="#204B69"/>
<path d="M393.217 231.291L492.208 173.171V289.414L393.217 231.291Z" fill="#246A91"/>
<path d="M591.009 231.974L690 173.854V290.098L591.009 231.974Z" fill="#246A91"/>
<path d="M294.555 174.343L393.748 116.224V232.466L294.555 174.343Z" fill="#246A91"/>
<path d="M98.6025 289.221L197.796 231.102V347.343L98.6025 289.221Z" fill="#246A91"/>
<path d="M196.686 347.949L295.677 289.829V406.073L196.686 347.949Z" fill="#246A91"/>
<path d="M491.77 57.7231L590.69 115.851L491.77 173.963V57.7231Z" fill="#1FBFE5"/>
<path d="M0 231L98.9202 289.127L0 347.24V231Z" fill="#1FBFE5"/>
<path d="M492.743 289.758L591.663 347.886L492.743 405.998V289.758Z" fill="#1FBFE5"/>
<path d="M294.951 289.758L393.871 347.886L294.951 405.998V289.758Z" fill="#1FBFE5"/>
<path d="M393.217 115.857L492.208 57.7295V173.969L393.217 115.857Z" fill="#246A91"/>
<path d="M196 231.109L294.905 173V289.24L196 231.109Z" fill="#2179AB"/>
<path d="M294 289.109L392.905 231V347.24L294 289.109Z" fill="#2179AB"/>
<path d="M198 116.109L296.905 58V174.24L198 116.109Z" fill="#2179AB"/>
<path d="M492.743 172.752L591.648 114.643V230.883L492.743 172.752Z" fill="#204B69"/>
<path d="M492.743 289.915L591.648 231.807V348.046L492.743 289.915Z" fill="#2179AB"/>
<path d="M591.009 347.893L689.933 289.758V405.979L591.009 347.893Z" fill="#204B69"/>
<path d="M590.062 0L689.039 58.1087L590.062 116.24V0Z" fill="#75C4E0"/>
<path d="M590.062 115.904L689.039 174.012L590.062 232.144V115.904Z" fill="#00AAC1"/>
<path d="M393.217 0L492.193 58.1087L393.217 116.24V0Z" fill="#75C4E0"/>
<path d="M591.009 231.807L689.985 289.915L591.009 348.046V231.807Z" fill="#75C4E0"/>
<path d="M393.225 231.291L492.208 289.4L393.225 347.531V231.291Z" fill="#75C4E0"/>
<path d="M197 116L295 173.489L197 231V116Z" fill="#75C4E0"/>
</svg>
